<svg version="1.1" xmlns="http://www.w3.org/2000/svg" xmlns:xlink="http://www.w3.org/1999/xlink" width="21" height="21" viewBox="0,0,256,256"><g fill="#ffffff" fill-rule="nonzero" stroke="none" stroke-width="1" stroke-linecap="butt" stroke-linejoin="miter" stroke-miterlimit="10" stroke-dasharray="" stroke-dashoffset="0" font-family="none" font-weight="none" font-size="none" text-anchor="none" style="mix-blend-mode: normal"><g transform="translate(4.22949,4.22949) scale(12.19048,12.19048)"><path d="M6.14799,8.34178c-0.28061,-0.30612 -0.7653,-0.33163 -1.07143,-0.05102c-0.30612,0.28061 -0.33163,0.76531 -0.05102,1.07143l3.85204,4.18371c0.15307,0.153 0.33164,0.2551 0.53572,0.2551c0,0 0,0 0.02551,0c0.20408,0 0.40816,-0.0766 0.53571,-0.2296l9.74488,-9.71942c0.3061,-0.30612 0.3061,-0.79081 0,-1.07143c-0.3061,-0.28061 -0.7908,-0.30612 -1.0714,0l-9.18368,9.15815z"></path><path d="M19.5408,9.38775c-0.4337,0 -0.7653,0.33163 -0.7653,0.76535c0,4.7448 -3.8775,8.6224 -8.6224,8.6224c-4.74494,0 -8.62249,-3.8776 -8.62249,-8.6224c0,-4.74494 3.87755,-8.62249 8.62249,-8.62249c0.4336,0 0.7653,-0.33163 0.7653,-0.7653c0,-0.43367 -0.3317,-0.76531 -0.7653,-0.76531c-5.58677,0 -10.1531,4.56632 -10.1531,10.1531c0,5.5867 4.56633,10.153 10.1531,10.153c5.5867,0 10.153,-4.5663 10.153,-10.153c0,-0.43372 -0.3316,-0.76535 -0.7653,-0.76535z"></path></g></g></svg>